<?xml version="1.0" encoding="UTF-8"?>
<svg width="170px" height="40px" viewBox="0 0 170 40" version="1.1" xmlns="http://www.w3.org/2000/svg" xmlns:xlink="http://www.w3.org/1999/xlink">
    <!-- Generator: Sketch 51.2 (57519) - http://www.bohemiancoding.com/sketch -->
    <title>logo_laradium</title>
    <desc>Created with Sketch.</desc>
    <defs></defs>
    <g id="Symbols" stroke="none" stroke-width="1" fill="none" fill-rule="evenodd">
        <g id="Header-top-bar-with-logo" transform="translate(-29.000000, -20.000000)">
            <g id="Header">
                <g id="Logo">
                    <g id="Logotype" transform="translate(30.000000, 18.000000)">
                        <g id="Text">
                            <g id="logo_laradium" transform="translate(0.000000, 2.000000)">
                                <path d="M72.15625,16.484375 L65.9921875,16.484375 L64.8203125,20 L61.0820312,20 L67.4335938,2.9375 L70.6914062,2.9375 L77.078125,20 L73.3398438,20 L72.15625,16.484375 Z M66.9414062,13.6367188 L71.2070312,13.6367188 L69.0625,7.25 L66.9414062,13.6367188 Z M83.1953125,15.8632812 L85.5507812,7.3203125 L89.0898438,7.3203125 L84.8125,20 L81.578125,20 L77.3007812,7.3203125 L80.8398438,7.3203125 L83.1953125,15.8632812 Z M96.4140625,20.234375 C94.5546782,20.234375 93.0410215,19.6640682 91.8730469,18.5234375 C90.7050723,17.3828068 90.1210938,15.8632907 90.1210938,13.9648438 L90.1210938,13.6367188 C90.1210938,12.3632749 90.367185,11.2246144 90.859375,10.2207031 C91.351565,9.21679186 92.0488236,8.44336209 92.9511719,7.90039062 C93.8535201,7.35741916 94.8828067,7.0859375 96.0390625,7.0859375 C97.7734462,7.0859375 99.1386669,7.63280703 100.134766,8.7265625 C101.130864,9.82031797 101.628906,11.3710837 101.628906,13.3789062 L101.628906,14.7617188 L93.5546875,14.7617188 C93.664063,15.5898479 93.9941379,16.2539037 94.5449219,16.7539062 C95.0957059,17.2539088 95.7929645,17.5039062 96.6367188,17.5039062 C97.9414128,17.5039062 98.9609338,17.0312547 99.6953125,16.0859375 L101.359375,17.9492188 C100.85156,18.6679723 100.164067,19.2285136 99.296875,19.6308594 C98.4296832,20.0332051 97.4687553,20.234375 96.4140625,20.234375 Z M96.0273438,9.828125 C95.3554654,9.828125 94.810549,10.0546852 94.3925781,10.5078125 C93.9746073,10.9609398 93.7070318,11.6093708 93.5898438,12.453125 L98.3007812,12.453125 L98.3007812,12.1835938 C98.2851562,11.43359 98.0820332,10.8535177 97.6914062,10.4433594 C97.3007793,10.0332011 96.7460973,9.828125 96.0273438,9.828125 Z M106.667969,7.3203125 L106.773438,8.78515625 C107.679692,7.65233809 108.894524,7.0859375 110.417969,7.0859375 C111.761725,7.0859375 112.761715,7.4804648 113.417969,8.26953125 C114.074222,9.0585977 114.410156,10.2382734 114.425781,11.8085938 L114.425781,20 L111.039062,20 L111.039062,11.890625 C111.039062,11.1718714 110.882814,10.6503922 110.570312,10.3261719 C110.257811,10.0019515 109.738285,9.83984375 109.011719,9.83984375 C108.058589,9.83984375 107.343752,10.2460897 106.867188,11.0585938 L106.867188,20 L103.480469,20 L103.480469,7.3203125 L106.667969,7.3203125 Z" id="Laradium" fill="#242933"></path>
                                <path d="M60.8671875,37 L60.8671875,28.46875 L63.3867188,28.46875 C64.1406288,28.46875 64.8095674,28.6367171 65.3935547,28.9726562 C65.977542,29.3085954 66.4296859,29.7851532 66.75,30.4023438 C67.0703141,31.0195343 67.2304688,31.7265585 67.2304688,32.5234375 L67.2304688,32.9511719 C67.2304688,33.7597697 67.0693375,34.4707001 66.7470703,35.0839844 C66.4248031,35.6972687 65.9658233,36.1699202 65.3701172,36.5019531 C64.7744111,36.833986 64.0918007,37 63.3222656,37 L60.8671875,37 Z M62.3496094,29.6640625 L62.3496094,35.8164062 L63.3164062,35.8164062 C64.0937539,35.8164062 64.6904276,35.5732446 65.1064453,35.0869141 C65.522463,34.6005835 65.734375,33.9023483 65.7421875,32.9921875 L65.7421875,32.5175781 C65.7421875,31.5917922 65.5410176,30.8847681 65.1386719,30.3964844 C64.7363261,29.9082007 64.1523476,29.6640625 63.3867188,29.6640625 L62.3496094,29.6640625 Z M72.3574219,37 C72.2949216,36.8789056 72.2402346,36.681642 72.1933594,36.4082031 C71.7402321,36.8808617 71.1855502,37.1171875 70.5292969,37.1171875 C69.8925749,37.1171875 69.3730489,36.9355487 68.9707031,36.5722656 C68.5683574,36.2089826 68.3671875,35.7597683 68.3671875,35.2246094 C68.3671875,34.5488247 68.6181616,34.0302752 69.1201172,33.6689453 C69.6220728,33.3076154 70.3398391,33.1269531 71.2734375,33.1269531 L72.1464844,33.1269531 L72.1464844,32.7109375 C72.1464844,32.3828109 72.0546884,32.1201182 71.8710938,31.9228516 C71.6874991,31.725585 71.408205,31.6269531 71.0332031,31.6269531 C70.7089828,31.6269531 70.4433604,31.708007 70.2363281,31.8701172 C70.0292958,32.0322274 69.9257812,32.23828 69.9257812,32.4882812 L68.5019531,32.4882812 C68.5019531,32.1406233 68.6171863,31.8154312 68.8476562,31.5126953 C69.0781262,31.2099594 69.3915996,30.9726571 69.7880859,30.8007812 C70.1845723,30.6289054 70.6269507,30.5429688 71.1152344,30.5429688 C71.8574256,30.5429688 72.4492165,30.7294903 72.890625,31.1025391 C73.3320335,31.4755878 73.5585937,31.9999966 73.5703125,32.6757812 L73.5703125,35.5351562 C73.5703125,36.1054716 73.6503898,36.5605452 73.8105469,36.9003906 L73.8105469,37 L72.3574219,37 Z M70.7929688,35.9746094 C71.0742202,35.9746094 71.3388659,35.9062507 71.5869141,35.7695312 C71.8349622,35.6328118 72.0214838,35.4492199 72.1464844,35.21875 L72.1464844,34.0234375 L71.3789062,34.0234375 C70.8515599,34.0234375 70.4550795,34.1152335 70.1894531,34.2988281 C69.9238268,34.4824228 69.7910156,34.7421858 69.7910156,35.078125 C69.7910156,35.3515639 69.881835,35.5693351 70.0634766,35.7314453 C70.2451181,35.8935555 70.4882797,35.9746094 70.7929688,35.9746094 Z M78.6152344,35.2773438 C78.6152344,35.0234362 78.5107432,34.8300788 78.3017578,34.6972656 C78.0927724,34.5644525 77.7460962,34.4472661 77.2617188,34.3457031 C76.7773413,34.2441401 76.3730485,34.1152352 76.0488281,33.9589844 C75.3378871,33.6152327 74.9824219,33.1171908 74.9824219,32.4648438 C74.9824219,31.917966 75.2128883,31.4609393 75.6738281,31.09375 C76.1347679,30.7265607 76.7206996,30.5429688 77.4316406,30.5429688 C78.1894569,30.5429688 78.8017555,30.7304669 79.2685547,31.1054688 C79.7353539,31.4804706 79.96875,31.9667939 79.96875,32.5644531 L78.5449219,32.5644531 C78.5449219,32.2910143 78.4433604,32.0634775 78.2402344,31.8818359 C78.0371084,31.7001944 77.7675798,31.609375 77.4316406,31.609375 C77.1191391,31.609375 76.8642588,31.6816399 76.6669922,31.8261719 C76.4697256,31.9707038 76.3710938,32.1640613 76.3710938,32.40625 C76.3710938,32.6250011 76.4628897,32.7949213 76.6464844,32.9160156 C76.830079,33.03711 77.2011691,33.1591791 77.7597656,33.2822266 C78.3183622,33.4052741 78.7568343,33.551757 79.0751953,33.7216797 C79.3935563,33.8916024 79.629882,34.0957019 79.7841797,34.3339844 C79.9384773,34.5722668 80.015625,34.8613264 80.015625,35.2011719 C80.015625,35.7714872 79.7792992,36.2333967 79.3066406,36.5869141 C78.833982,36.9404315 78.2148476,37.1171875 77.4492188,37.1171875 C76.9296849,37.1171875 76.4667989,37.0234384 76.0605469,36.8359375 C75.6542948,36.6484366 75.3378918,36.3906266 75.1113281,36.0625 C74.8847645,35.7343734 74.7714844,35.3808613 74.7714844,35.0019531 L76.1542969,35.0019531 C76.1738282,35.3378923 76.3007801,35.5966788 76.5351562,35.7783203 C76.7695324,35.9599618 77.0800762,36.0507812 77.4667969,36.0507812 C77.8417988,36.0507812 78.1269521,35.9794929 78.3222656,35.8369141 C78.5175791,35.6943352 78.6152344,35.5078137 78.6152344,35.2773438 Z M82.6582031,31.3515625 C83.1230492,30.8124973 83.7109339,30.5429688 84.421875,30.5429688 C85.7734443,30.5429688 86.4589843,31.3144454 86.4785156,32.8574219 L86.4785156,37 L85.0546875,37 L85.0546875,32.9101562 C85.0546875,32.4726541 84.9599619,32.1630868 84.7705078,31.9814453 C84.5810537,31.7998038 84.3027362,31.7089844 83.9355469,31.7089844 C83.3652315,31.7089844 82.9394545,31.9628881 82.6582031,32.4707031 L82.6582031,37 L81.234375,37 L81.234375,28 L82.6582031,28 L82.6582031,31.3515625 Z M93.4804688,33.8945312 C93.4804688,34.8789112 93.2607444,35.6621065 92.8212891,36.2441406 C92.3818337,36.8261748 91.7773476,37.1171875 91.0078125,37.1171875 C90.2656213,37.1171875 89.6875021,36.8496121 89.2734375,36.3144531 L89.203125,37 L87.9140625,37 L87.9140625,28 L89.3378906,28 L89.3378906,31.2695312 C89.7480489,30.7851538 90.3007778,30.5429688 90.9960938,30.5429688 C91.7695351,30.5429688 92.3769509,30.8300753 92.8183594,31.4042969 C93.2597678,31.9785185 93.4804688,32.7812448 93.4804688,33.8125 L93.4804688,33.8945312 Z M92.0566406,33.7714844 C92.0566406,33.0839809 91.9355481,32.5683611 91.6933594,32.2246094 C91.4511707,31.8808577 91.0996117,31.7089844 90.6386719,31.7089844 C90.0214813,31.7089844 89.5878919,31.9785129 89.3378906,32.5175781 L89.3378906,35.1308594 C89.5917981,35.6816434 90.0292938,35.9570312 90.6503906,35.9570312 C91.0957054,35.9570312 91.4394519,35.7910173 91.6816406,35.4589844 C91.9238293,35.1269515 92.0488281,34.6250034 92.0566406,33.953125 L92.0566406,33.7714844 Z M94.40625,33.7714844 C94.40625,33.1503875 94.5292956,32.5908228 94.7753906,32.0927734 C95.0214856,31.5947241 95.3671853,31.2119154 95.8125,30.9443359 C96.2578147,30.6767565 96.7695284,30.5429688 97.3476562,30.5429688 C98.2031293,30.5429688 98.8974583,30.8183566 99.4306641,31.3691406 C99.9638699,31.9199246 100.251953,32.6503861 100.294922,33.5605469 L100.300781,33.8945312 C100.300781,34.5195344 100.180665,35.0781225 99.9404297,35.5703125 C99.7001941,36.0625025 99.3564475,36.443358 98.9091797,36.7128906 C98.4619118,36.9824232 97.9453154,37.1171875 97.359375,37.1171875 C96.4648393,37.1171875 95.7490261,36.8193389 95.2119141,36.2236328 C94.674802,35.6279267 94.40625,34.8339893 94.40625,33.8417969 L94.40625,33.7714844 Z M95.8300781,33.8945312 C95.8300781,34.5468783 95.9648424,35.0576153 96.234375,35.4267578 C96.5039076,35.7959003 96.8789038,35.9804688 97.359375,35.9804688 C97.8398462,35.9804688 98.2138658,35.7929706 98.4814453,35.4179688 C98.7490248,35.0429669 98.8828125,34.4941442 98.8828125,33.7714844 C98.8828125,33.1308562 98.7451186,32.6230488 98.4697266,32.2480469 C98.1943346,31.873045 97.8203149,31.6855469 97.3476562,31.6855469 C96.8828102,31.6855469 96.5136732,31.8701153 96.2402344,32.2392578 C95.9667955,32.6084003 95.8300781,33.1601526 95.8300781,33.8945312 Z M105.292969,37 C105.230468,36.8789056 105.175781,36.681642 105.128906,36.4082031 C104.675779,36.8808617 104.121097,37.1171875 103.464844,37.1171875 C102.828122,37.1171875 102.308596,36.9355487 101.90625,36.5722656 C101.503904,36.2089826 101.302734,35.7597683 101.302734,35.2246094 C101.302734,34.5488247 101.553708,34.0302752 102.055664,33.6689453 C102.55762,33.3076154 103.275386,33.1269531 104.208984,33.1269531 L105.082031,33.1269531 L105.082031,32.7109375 C105.082031,32.3828109 104.990235,32.1201182 104.806641,31.9228516 C104.623046,31.725585 104.343752,31.6269531 103.96875,31.6269531 C103.64453,31.6269531 103.378907,31.708007 103.171875,31.8701172 C102.964843,32.0322274 102.861328,32.23828 102.861328,32.4882812 L101.4375,32.4882812 C101.4375,32.1406233 101.552733,31.8154312 101.783203,31.5126953 C102.013673,31.2099594 102.327146,30.9726571 102.723633,30.8007812 C103.120119,30.6289054 103.562498,30.5429688 104.050781,30.5429688 C104.792972,30.5429688 105.384763,30.7294903 105.826172,31.1025391 C106.26758,31.4755878 106.494141,31.9999966 106.505859,32.6757812 L106.505859,35.5351562 C106.505859,36.1054716 106.585937,36.5605452 106.746094,36.9003906 L106.746094,37 L105.292969,37 Z M103.728516,35.9746094 C104.009767,35.9746094 104.274413,35.9062507 104.522461,35.7695312 C104.770509,35.6328118 104.957031,35.4492199 105.082031,35.21875 L105.082031,34.0234375 L104.314453,34.0234375 C103.787107,34.0234375 103.390626,34.1152335 103.125,34.2988281 C102.859374,34.4824228 102.726562,34.7421858 102.726562,35.078125 C102.726562,35.3515639 102.817382,35.5693351 102.999023,35.7314453 C103.180665,35.8935555 103.423827,35.9746094 103.728516,35.9746094 Z M111.316406,31.9609375 C111.128905,31.9296873 110.935548,31.9140625 110.736328,31.9140625 C110.083981,31.9140625 109.644532,32.16406 109.417969,32.6640625 L109.417969,37 L107.994141,37 L107.994141,30.6601562 L109.353516,30.6601562 L109.388672,31.3691406 C109.732424,30.8183566 110.208981,30.5429688 110.818359,30.5429688 C111.021485,30.5429688 111.189452,30.5703122 111.322266,30.625 L111.316406,31.9609375 Z M111.949219,33.7832031 C111.949219,32.8066357 112.175779,32.0224639 112.628906,31.4306641 C113.082034,30.8388642 113.689449,30.5429688 114.451172,30.5429688 C115.12305,30.5429688 115.666014,30.7773414 116.080078,31.2460938 L116.080078,28 L117.503906,28 L117.503906,37 L116.214844,37 L116.144531,36.34375 C115.718748,36.8593776 115.150394,37.1171875 114.439453,37.1171875 C113.697262,37.1171875 113.096682,36.8183624 112.637695,36.2207031 C112.178709,35.6230439 111.949219,34.810552 111.949219,33.7832031 Z M113.373047,33.90625 C113.373047,34.5507845 113.497069,35.0537091 113.745117,35.4150391 C113.993165,35.776369 114.345701,35.9570312 114.802734,35.9570312 C115.384769,35.9570312 115.810546,35.6972682 116.080078,35.1777344 L116.080078,32.4707031 C115.818358,31.9628881 115.396487,31.7089844 114.814453,31.7089844 C114.353513,31.7089844 113.998048,31.8915997 113.748047,32.2568359 C113.498046,32.6220721 113.373047,33.1718713 113.373047,33.90625 Z M123.761719,29.1191406 L123.761719,30.6601562 L124.880859,30.6601562 L124.880859,31.7148438 L123.761719,31.7148438 L123.761719,35.2539062 C123.761719,35.496095 123.80957,35.6708979 123.905273,35.7783203 C124.000977,35.8857427 124.171874,35.9394531 124.417969,35.9394531 C124.582032,35.9394531 124.748046,35.9199221 124.916016,35.8808594 L124.916016,36.9824219 C124.591795,37.0722661 124.279298,37.1171875 123.978516,37.1171875 C122.88476,37.1171875 122.337891,36.5136779 122.337891,35.3066406 L122.337891,31.7148438 L121.294922,31.7148438 L121.294922,30.6601562 L122.337891,30.6601562 L122.337891,29.1191406 L123.761719,29.1191406 Z M128.759766,37.1171875 C127.857417,37.1171875 127.125979,36.8330107 126.56543,36.2646484 C126.00488,35.6962862 125.724609,34.9394579 125.724609,33.9941406 L125.724609,33.8183594 C125.724609,33.1855437 125.846678,32.6201197 126.09082,32.1220703 C126.334962,31.6240209 126.677732,31.2363295 127.119141,30.9589844 C127.560549,30.6816392 128.052732,30.5429688 128.595703,30.5429688 C129.458989,30.5429688 130.125974,30.8183566 130.59668,31.3691406 C131.067385,31.9199246 131.302734,32.6992137 131.302734,33.7070312 L131.302734,34.28125 L127.160156,34.28125 C127.203125,34.8046901 127.377928,35.2187485 127.68457,35.5234375 C127.991212,35.8281265 128.376951,35.9804688 128.841797,35.9804688 C129.494144,35.9804688 130.025389,35.7167995 130.435547,35.1894531 L131.203125,35.921875 C130.949217,36.3007831 130.610354,36.5947255 130.186523,36.8037109 C129.762693,37.0126964 129.287112,37.1171875 128.759766,37.1171875 Z M128.589844,31.6855469 C128.199217,31.6855469 127.88379,31.8222643 127.643555,32.0957031 C127.403319,32.369142 127.25,32.7499976 127.183594,33.2382812 L129.896484,33.2382812 L129.896484,33.1328125 C129.865234,32.6562476 129.738282,32.2958997 129.515625,32.0517578 C129.292968,31.807616 128.984377,31.6855469 128.589844,31.6855469 Z M133.746094,30.6601562 L133.787109,31.3222656 C134.232424,30.8027318 134.841793,30.5429688 135.615234,30.5429688 C136.462895,30.5429688 137.042967,30.8671843 137.355469,31.515625 C137.816409,30.8671843 138.46484,30.5429688 139.300781,30.5429688 C140.000003,30.5429688 140.520506,30.7363262 140.862305,31.1230469 C141.204103,31.5097676 141.378906,32.0800744 141.386719,32.8339844 L141.386719,37 L139.962891,37 L139.962891,32.875 C139.962891,32.4726542 139.875001,32.1777353 139.699219,31.9902344 C139.523437,31.8027334 139.232424,31.7089844 138.826172,31.7089844 C138.501952,31.7089844 138.237306,31.7958976 138.032227,31.9697266 C137.827147,32.1435556 137.683594,32.3710923 137.601562,32.6523438 L137.607422,37 L136.183594,37 L136.183594,32.828125 C136.164062,32.0820275 135.783207,31.7089844 135.041016,31.7089844 C134.4707,31.7089844 134.066407,31.9414039 133.828125,32.40625 L133.828125,37 L132.404297,37 L132.404297,30.6601562 L133.746094,30.6601562 Z M148.400391,33.8945312 C148.400391,34.8750049 148.177737,35.6572236 147.732422,36.2412109 C147.287107,36.8251982 146.689457,37.1171875 145.939453,37.1171875 C145.244137,37.1171875 144.687502,36.8886742 144.269531,36.4316406 L144.269531,39.4375 L142.845703,39.4375 L142.845703,30.6601562 L144.158203,30.6601562 L144.216797,31.3046875 C144.634768,30.7968725 145.203121,30.5429688 145.921875,30.5429688 C146.695316,30.5429688 147.301756,30.8310518 147.741211,31.4072266 C148.180666,31.9834013 148.400391,32.783198 148.400391,33.8066406 L148.400391,33.8945312 Z M146.982422,33.7714844 C146.982422,33.1386687 146.856447,32.6367206 146.604492,32.265625 C146.352538,31.8945294 145.99219,31.7089844 145.523438,31.7089844 C144.941403,31.7089844 144.523439,31.9492163 144.269531,32.4296875 L144.269531,35.2421875 C144.527345,35.7343775 144.949216,35.9804688 145.535156,35.9804688 C145.988284,35.9804688 146.342772,35.7978534 146.598633,35.4326172 C146.854493,35.067381 146.982422,34.5136756 146.982422,33.7714844 Z M151.119141,37 L149.695312,37 L149.695312,28 L151.119141,28 L151.119141,37 Z M156.457031,37 C156.394531,36.8789056 156.339844,36.681642 156.292969,36.4082031 C155.839841,36.8808617 155.28516,37.1171875 154.628906,37.1171875 C153.992184,37.1171875 153.472658,36.9355487 153.070312,36.5722656 C152.667967,36.2089826 152.466797,35.7597683 152.466797,35.2246094 C152.466797,34.5488247 152.717771,34.0302752 153.219727,33.6689453 C153.721682,33.3076154 154.439448,33.1269531 155.373047,33.1269531 L156.246094,33.1269531 L156.246094,32.7109375 C156.246094,32.3828109 156.154298,32.1201182 155.970703,31.9228516 C155.787108,31.725585 155.507814,31.6269531 155.132812,31.6269531 C154.808592,31.6269531 154.54297,31.708007 154.335938,31.8701172 C154.128905,32.0322274 154.025391,32.23828 154.025391,32.4882812 L152.601562,32.4882812 C152.601562,32.1406233 152.716796,31.8154312 152.947266,31.5126953 C153.177736,31.2099594 153.491209,30.9726571 153.887695,30.8007812 C154.284182,30.6289054 154.72656,30.5429688 155.214844,30.5429688 C155.957035,30.5429688 156.548826,30.7294903 156.990234,31.1025391 C157.431643,31.4755878 157.658203,31.9999966 157.669922,32.6757812 L157.669922,35.5351562 C157.669922,36.1054716 157.749999,36.5605452 157.910156,36.9003906 L157.910156,37 L156.457031,37 Z M154.892578,35.9746094 C155.17383,35.9746094 155.438475,35.9062507 155.686523,35.7695312 C155.934572,35.6328118 156.121093,35.4492199 156.246094,35.21875 L156.246094,34.0234375 L155.478516,34.0234375 C154.951169,34.0234375 154.554689,34.1152335 154.289062,34.2988281 C154.023436,34.4824228 153.890625,34.7421858 153.890625,35.078125 C153.890625,35.3515639 153.981444,35.5693351 154.163086,35.7314453 C154.344727,35.8935555 154.587889,35.9746094 154.892578,35.9746094 Z M160.945312,29.1191406 L160.945312,30.6601562 L162.064453,30.6601562 L162.064453,31.7148438 L160.945312,31.7148438 L160.945312,35.2539062 C160.945312,35.496095 160.993164,35.6708979 161.088867,35.7783203 C161.184571,35.8857427 161.355468,35.9394531 161.601562,35.9394531 C161.765626,35.9394531 161.93164,35.9199221 162.099609,35.8808594 L162.099609,36.9824219 C161.775389,37.0722661 161.462892,37.1171875 161.162109,37.1171875 C160.068354,37.1171875 159.521484,36.5136779 159.521484,35.3066406 L159.521484,31.7148438 L158.478516,31.7148438 L158.478516,30.6601562 L159.521484,30.6601562 L159.521484,29.1191406 L160.945312,29.1191406 Z M165.943359,37.1171875 C165.041011,37.1171875 164.309573,36.8330107 163.749023,36.2646484 C163.188474,35.6962862 162.908203,34.9394579 162.908203,33.9941406 L162.908203,33.8183594 C162.908203,33.1855437 163.030272,32.6201197 163.274414,32.1220703 C163.518556,31.6240209 163.861326,31.2363295 164.302734,30.9589844 C164.744143,30.6816392 165.236325,30.5429688 165.779297,30.5429688 C166.642582,30.5429688 167.309568,30.8183566 167.780273,31.3691406 C168.250979,31.9199246 168.486328,32.6992137 168.486328,33.7070312 L168.486328,34.28125 L164.34375,34.28125 C164.386719,34.8046901 164.561522,35.2187485 164.868164,35.5234375 C165.174806,35.8281265 165.560545,35.9804688 166.025391,35.9804688 C166.677738,35.9804688 167.208982,35.7167995 167.619141,35.1894531 L168.386719,35.921875 C168.132811,36.3007831 167.793947,36.5947255 167.370117,36.8037109 C166.946287,37.0126964 166.470706,37.1171875 165.943359,37.1171875 Z M165.773438,31.6855469 C165.382811,31.6855469 165.067384,31.8222643 164.827148,32.0957031 C164.586913,32.369142 164.433594,32.7499976 164.367188,33.2382812 L167.080078,33.2382812 L167.080078,33.1328125 C167.048828,32.6562476 166.921876,32.2958997 166.699219,32.0517578 C166.476561,31.807616 166.167971,31.6855469 165.773438,31.6855469 Z" id="Dashboard-template" fill="#8F9BB3"></path>
                                <g id="Symbol">
                                    <path d="M13.6296296,0 L32.3703704,0 C33.8035155,0.0878519862 35.1998174,0.873393015 35.7777778,2.06185567 L45.5740741,18.1443299 C46.1866783,19.3211197 46.190291,20.8861356 45.5740741,22.2680412 L36.2037037,37.9381443 C35.3883533,39.2122976 33.9691446,40.0066153 32.3703704,40 L13.6296296,40 C12.1964845,39.912148 10.8001826,39.126607 10.2222222,37.9381443 L0.425925926,21.8556701 C-0.186678265,20.6788803 -0.190291026,19.1138644 0.425925926,17.7319588 L9.7962963,2.06185567 C10.6116467,0.787702416 12.0308554,-0.0066152762 13.6296296,0 Z" id="Polygon" fill="#1A66FF"></path>
                                    <circle id="Oval-2" fill="#FFFFFF" cx="23" cy="20" r="13"></circle>
                                    <g id="Group-5" transform="translate(13.000000, 10.000000)" fill="#1A66FF">
                                        <rect id="Rectangle-3" x="9.5" y="0" width="1" height="4" rx="0.5"></rect>
                                        <rect id="Rectangle-3" opacity="0.300000012" x="9.5" y="16" width="1" height="4" rx="0.5"></rect>
                                        <rect id="Rectangle-3" opacity="0.600000024" transform="translate(18.000000, 10.000000) rotate(90.000000) translate(-18.000000, -10.000000) " x="17.5" y="8" width="1" height="4" rx="0.5"></rect>
                                        <rect id="Rectangle-3" opacity="0.600000024" transform="translate(2.000000, 10.000000) rotate(90.000000) translate(-2.000000, -10.000000) " x="1.5" y="8" width="1" height="4" rx="0.5"></rect>
                                        <rect id="Rectangle-3" opacity="0.800000012" transform="translate(15.656854, 4.343146) rotate(-315.000000) translate(-15.656854, -4.343146) " x="15.1568542" y="2.34314575" width="1" height="4" rx="0.5"></rect>
                                        <rect id="Rectangle-3" opacity="0.400000006" transform="translate(4.343146, 15.656854) rotate(-315.000000) translate(-4.343146, -15.656854) " x="3.84314575" y="13.6568542" width="1" height="4" rx="0.5"></rect>
                                        <rect id="Rectangle-3" opacity="0.400000006" transform="translate(15.656854, 15.656854) rotate(-225.000000) translate(-15.656854, -15.656854) " x="15.1568542" y="13.6568542" width="1" height="4" rx="0.5"></rect>
                                        <rect id="Rectangle-3" opacity="0.800000012" transform="translate(4.343146, 4.343146) rotate(-225.000000) translate(-4.343146, -4.343146) " x="3.84314575" y="2.34314575" width="1" height="4" rx="0.5"></rect>
                                        <circle id="Oval-3" cx="10" cy="10" r="1.5"></circle>
                                    </g>
                                </g>
                            </g>
                        </g>
                    </g>
                </g>
            </g>
        </g>
    </g>
</svg>